<?xml version="1.0" standalone="no"?>
<!DOCTYPE svg PUBLIC "-//W3C//DTD SVG 20010904//EN"
 "http://www.w3.org/TR/2001/REC-SVG-20010904/DTD/svg10.dtd">
<svg version="1.0" xmlns="http://www.w3.org/2000/svg"
 width="256.000000pt" height="256.000000pt" viewBox="0 0 256.000000 256.000000"
 preserveAspectRatio="xMidYMid meet">
<metadata>
Created by potrace 1.14, written by Peter Selinger 2001-2017
</metadata>
<g transform="translate(0.000000,256.000000) scale(0.100000,-0.100000)"
fill="#000000" stroke="none">
<path d="M1230 2535 c0 -26 -35 -52 -80 -59 -24 -4 -49 -11 -55 -15 -21 -17
-53 -21 -67 -9 -7 7 -24 22 -37 33 l-23 20 4 -60 c2 -47 -1 -65 -15 -81 l-19
-22 -61 24 c-33 13 -62 22 -64 20 -2 -2 11 -33 28 -69 27 -55 31 -68 20 -81
-19 -22 -22 -21 -80 25 -28 22 -51 37 -51 32 0 -4 13 -43 29 -87 l28 -78 -52
-86 c-43 -71 -63 -93 -116 -130 -35 -24 -65 -47 -67 -50 -1 -4 12 -8 28 -8 17
-1 33 -4 36 -7 11 -11 -29 -64 -62 -82 -46 -25 -143 -125 -177 -182 -15 -27
-34 -71 -42 -99 l-16 -51 -56 18 c-31 11 -58 18 -59 16 -2 -2 17 -26 41 -54
43 -49 44 -51 33 -87 -13 -40 -26 -51 -73 -59 -16 -3 -44 -9 -61 -12 l-32 -7
0 -262 c0 -241 -2 -265 -21 -316 -12 -30 -21 -70 -21 -89 0 -23 -11 -49 -36
-82 l-36 -49 29 -10 c69 -25 83 -33 83 -46 0 -8 7 -14 15 -14 8 0 15 -3 15 -6
0 -3 -25 -42 -56 -86 -68 -99 -76 -115 -46 -99 12 7 22 10 22 7 0 -3 16 2 35
10 47 19 50 18 31 -11 -9 -13 -16 -26 -16 -28 0 -2 22 2 50 9 27 7 62 15 77
18 15 3 45 9 66 15 42 10 36 16 67 -64 9 -23 30 -35 30 -17 0 15 58 74 68 69
5 -4 17 2 26 12 10 11 32 18 56 19 21 1 59 9 82 17 54 20 145 45 162 45 7 0
66 -65 130 -145 65 -80 120 -145 123 -145 2 0 2 4 -1 9 -7 11 -13 56 -21 156
l-6 73 33 -7 c18 -5 49 -18 68 -29 52 -31 119 -53 170 -54 34 -2 65 8 132 40
94 45 153 55 144 25 -2 -10 -7 -47 -11 -83 -4 -36 -9 -78 -11 -95 -6 -36 -15
-44 121 120 65 79 114 129 124 128 38 -4 99 -21 136 -37 22 -10 59 -17 82 -18
28 0 47 -6 59 -19 9 -10 21 -16 27 -12 6 3 27 -14 48 -38 l38 -44 10 28 c6 15
15 38 20 51 9 22 13 24 43 16 18 -5 47 -12 63 -15 17 -3 54 -11 83 -19 52 -14
65 -9 37 14 -30 25 -14 28 50 11 l64 -18 -64 94 c-75 110 -75 122 7 148 29 10
57 20 61 22 4 3 -8 26 -28 53 -24 32 -35 58 -34 77 2 29 -38 150 -52 159 -13
8 -11 274 1 274 7 0 7 6 0 19 -5 11 -10 64 -10 119 l0 99 -54 12 c-53 12 -54
13 -65 58 -11 42 -10 47 14 79 15 19 36 43 48 54 26 25 11 25 -53 1 -27 -11
-52 -16 -54 -13 -2 4 -9 25 -15 47 -24 90 -112 206 -207 271 -51 35 -91 80
-81 90 3 3 21 6 40 7 19 1 33 5 31 9 -3 4 -36 28 -74 54 -39 26 -70 50 -70 54
0 4 -22 43 -49 87 -27 45 -46 85 -42 90 14 15 61 153 52 153 -4 0 -16 -9 -26
-20 -10 -12 -34 -30 -52 -41 -29 -18 -35 -19 -48 -5 -13 13 -12 22 16 81 17
37 29 69 26 71 -2 2 -30 -7 -63 -20 l-59 -25 -18 22 c-13 17 -17 36 -14 80 2
31 0 57 -3 57 -4 0 -15 -9 -26 -21 -31 -35 -51 -41 -81 -26 -16 8 -51 20 -80
26 -44 11 -53 17 -63 44 l-11 32 -14 -25 c-8 -14 -14 -19 -15 -12 0 8 -5 10
-12 6 -24 -15 -58 -10 -58 8 0 10 -4 18 -10 18 -5 0 -10 -7 -10 -15z"/>
</g>
</svg>
